<svg width="137" height="137" viewBox="0 0 137 137" fill="none" xmlns="http://www.w3.org/2000/svg">
<g filter="url(#filter0_dd_3_64)">
<rect x="4" y="4" width="128" height="128" rx="25" fill="#F0F0F3"/>
</g>
<rect x="9" y="9" width="117.333" height="117.333" rx="25" fill="#EEEEEE"/>
<g clip-path="url(#clip0_3_64)">
<path d="M16.6114 96V44.16H25.3954L42.5314 78.576L59.6674 44.16H68.4514V96H59.3074V65.04L44.2594 96H40.8034L25.7554 65.04V96H16.6114ZM98.1407 97.08C94.3007 97.08 90.8327 96.408 87.7367 95.064C84.6647 93.696 82.1327 91.752 80.1407 89.232C78.1727 86.688 76.9247 83.664 76.3967 80.16L86.6207 78.648C87.3407 81.624 88.8287 83.916 91.0847 85.524C93.3407 87.132 95.9087 87.936 98.7887 87.936C100.397 87.936 101.957 87.684 103.469 87.18C104.981 86.676 106.217 85.932 107.177 84.948C108.161 83.964 108.653 82.752 108.653 81.312C108.653 80.784 108.569 80.28 108.401 79.8C108.257 79.296 108.005 78.828 107.645 78.396C107.285 77.964 106.769 77.556 106.097 77.172C105.449 76.788 104.621 76.44 103.613 76.128L90.1487 72.168C89.1407 71.88 87.9647 71.472 86.6207 70.944C85.3007 70.416 84.0167 69.66 82.7687 68.676C81.5207 67.692 80.4767 66.396 79.6367 64.788C78.8207 63.156 78.4127 61.104 78.4127 58.632C78.4127 55.152 79.2887 52.26 81.0407 49.956C82.7927 47.652 85.1327 45.936 88.0607 44.808C90.9887 43.68 94.2287 43.128 97.7807 43.152C101.357 43.2 104.549 43.812 107.357 44.988C110.165 46.164 112.517 47.88 114.413 50.136C116.309 52.368 117.677 55.104 118.517 58.344L107.933 60.144C107.549 58.464 106.841 57.048 105.809 55.896C104.777 54.744 103.541 53.868 102.101 53.268C100.685 52.668 99.1967 52.344 97.6367 52.296C96.1007 52.248 94.6487 52.464 93.2807 52.944C91.9367 53.4 90.8327 54.072 89.9687 54.96C89.1287 55.848 88.7087 56.904 88.7087 58.128C88.7087 59.256 89.0567 60.18 89.7527 60.9C90.4487 61.596 91.3247 62.16 92.3807 62.592C93.4367 63.024 94.5167 63.384 95.6207 63.672L104.621 66.12C105.965 66.48 107.453 66.96 109.085 67.56C110.717 68.136 112.277 68.952 113.765 70.008C115.277 71.04 116.513 72.408 117.473 74.112C118.457 75.816 118.949 77.976 118.949 80.592C118.949 83.376 118.361 85.812 117.185 87.9C116.033 89.964 114.473 91.68 112.505 93.048C110.537 94.392 108.305 95.4 105.809 96.072C103.337 96.744 100.781 97.08 98.1407 97.08Z" fill="#FB7575"/>
</g>
<defs>
<filter id="filter0_dd_3_64" x="0" y="0" width="136.5" height="136.5" filterUnits="userSpaceOnUse" color-interpolation-filters="sRGB">
<feFlood flood-opacity="0" result="BackgroundImageFix"/>
<feColorMatrix in="SourceAlpha" type="matrix" values="0 0 0 0 0 0 0 0 0 0 0 0 0 0 0 0 0 0 127 0" result="hardAlpha"/>
<feOffset dx="1.5" dy="1.5"/>
<feGaussianBlur stdDeviation="1.5"/>
<feColorMatrix type="matrix" values="0 0 0 0 0.682353 0 0 0 0 0.682353 0 0 0 0 0.752941 0 0 0 0.4 0"/>
<feBlend mode="normal" in2="BackgroundImageFix" result="effect1_dropShadow_3_64"/>
<feColorMatrix in="SourceAlpha" type="matrix" values="0 0 0 0 0 0 0 0 0 0 0 0 0 0 0 0 0 0 127 0" result="hardAlpha"/>
<feOffset dx="-1" dy="-1"/>
<feGaussianBlur stdDeviation="1.5"/>
<feColorMatrix type="matrix" values="0 0 0 0 1 0 0 0 0 1 0 0 0 0 1 0 0 0 1 0"/>
<feBlend mode="normal" in2="effect1_dropShadow_3_64" result="effect2_dropShadow_3_64"/>
<feBlend mode="normal" in="SourceGraphic" in2="effect2_dropShadow_3_64" result="shape"/>
</filter>
<clipPath id="clip0_3_64">
<rect width="104" height="102" fill="white" transform="translate(16 17)"/>
</clipPath>
</defs>
</svg>
